<svg width="19" height="19" viewBox="0 0 19 19" fill="none" xmlns="http://www.w3.org/2000/svg">
<path d="M13.9333 4.43336H15.2M5.69997 0.633362H13.3C16.0982 0.633362 18.3666 2.90179 18.3666 5.70003V13.3C18.3666 16.0983 16.0982 18.3667 13.3 18.3667H5.69997C2.90172 18.3667 0.633301 16.0983 0.633301 13.3V5.70003C0.633301 2.90179 2.90172 0.633362 5.69997 0.633362ZM9.49997 13.3C7.40129 13.3 5.69997 11.5987 5.69997 9.50003C5.69997 7.40135 7.40129 5.70003 9.49997 5.70003C11.5986 5.70003 13.3 7.40135 13.3 9.50003C13.3 11.5987 11.5986 13.3 9.49997 13.3Z" stroke="#171719"/>
</svg>
